<?xml version="1.0" encoding="utf-8"?>
<!-- Generator: Adobe Illustrator 21.0.2, SVG Export Plug-In . SVG Version: 6.00 Build 0)  -->
<svg version="1.1" id="Warstwa_1" xmlns="http://www.w3.org/2000/svg" xmlns:xlink="http://www.w3.org/1999/xlink" x="0px" y="0px"
	 viewBox="0 0 1131.4 264.2" style="enable-background:new 0 0 1131.4 264.2;" xml:space="preserve">
<style type="text/css">
	.st0{fill:url(#SVGID_1_);}
	.st1{fill:url(#SVGID_2_);}
	.st2{fill:#FFFFFF;}
	.st3{fill:#F15C27;}
	.st4{fill:url(#SVGID_3_);}
	.st5{fill:url(#SVGID_4_);}
</style>
<g>
	<g>
		<g>
			<path class="st2" d="M353.4,115.1c1.1-2.3,3-3.4,5.8-3.4c1.4,0,2.7,0.6,3.8,1.8c1.1,1.2,1.7,2.3,1.7,3.4c0,1.4-0.2,2.6-0.7,3.7
				l-23,55c-0.6,1.3-1.6,2.5-2.8,3.4c-1.3,1-2.8,1.5-4.4,1.5h-1.3c-1.7,0-3.1-0.5-4.4-1.5c-1.3-1-2.2-2.1-2.8-3.4l-23-55
				c-0.4-1.1-0.7-2.2-0.7-3.4c0-1.2,0.6-2.4,1.7-3.6c1.2-1.2,2.4-1.8,3.8-1.8c2.8,0,4.8,1.1,5.8,3.4l20.2,51.3L353.4,115.1z"/>
			<path class="st2" d="M418.1,111c10.2,0,18.4,3.2,24.6,9.6c6.2,6.5,9.3,15,9.3,25.4c0,10.4-3.1,18.9-9.3,25.4
				c-6.2,6.4-14.4,9.6-24.6,9.6c-10.3,0-18.5-3.2-24.6-9.6c-6.2-6.4-9.3-14.9-9.3-25.4c0-10.5,3.1-18.9,9.3-25.4
				C399.6,114.2,407.7,111,418.1,111z M403.3,164.6c2.1,1.9,4.4,3.3,7,4.2c2.6,0.9,5.1,1.3,7.7,1.3c2.5,0,5.1-0.4,7.7-1.3
				c2.6-0.9,5-2.3,7.1-4.1c4.8-4.3,7.1-10.6,7.1-18.8c0-7.9-2.4-14.1-7.1-18.5c-4-3.6-8.9-5.4-14.7-5.4c-9.5,0-16.1,4.3-19.8,12.8
				c-1.3,3.1-2,6.8-2,11.2c0,4.4,0.7,8.1,2,11.2C399.6,160.2,401.2,162.7,403.3,164.6z"/>
			<path class="st2" d="M493,91.8c0,1.9-0.7,3.4-2,4.8c-1.3,1.3-2.9,2-4.8,2h-0.8c-1.8,0-3.4-0.7-4.8-2c-1.3-1.3-2-2.9-2-4.8v-0.5
				c0-1.8,0.7-3.4,2-4.8c1.3-1.3,2.9-2,4.8-2h0.8c1.8,0,3.4,0.7,4.8,2c1.3,1.3,2,2.9,2,4.8V91.8z M481.5,113.3
				c1.1-1.1,2.6-1.7,4.3-1.7c1.7,0,3.1,0.6,4.3,1.7c1.1,1.1,1.7,2.6,1.7,4.4v56.7c0,1.7-0.6,3.1-1.7,4.2c-1.1,1.1-2.6,1.7-4.3,1.7
				c-1.7,0-3.2-0.6-4.3-1.7c-1.1-1.1-1.7-2.5-1.7-4.2v-56.7C479.8,115.9,480.3,114.5,481.5,113.3z"/>
			<path class="st2" d="M555.8,169.8c4.9,0,9.6-1.2,14.1-3.7c1.6-0.9,3-1.3,4.2-1.3c1.2,0,2.3,0.6,3.3,1.7c1,1.1,1.5,2.5,1.5,4.1
				c0,1.6-1,3-3,4.4c-6.3,4.1-13.3,6.1-21.1,6.1c-9.8,0-18-3.1-24.7-9.3c-7-6.5-10.6-15.1-10.6-25.8c0-10.7,3.5-19.3,10.6-25.8
				c6.7-6.2,14.9-9.3,24.7-9.3c5.3,0,9.6,0.7,13,2c3.4,1.4,6.1,2.7,8.1,4c2,1.3,3,2.8,3,4.4c0,1.6-0.5,3-1.5,4.1
				c-1,1.1-1.9,1.7-2.9,1.7c-1.5,0-3-0.4-4.6-1.3c-4.5-2.5-9.2-3.7-14.1-3.7c-7.8,0-13.7,2.2-18,6.5c-4.2,4.4-6.3,10.1-6.3,17.2
				c0,7.1,2.1,12.9,6.3,17.3C542,167.6,548,169.8,555.8,169.8z"/>
			<path class="st2" d="M619.6,164.5c3.8,3.5,9.1,5.3,15.9,5.3c6.8,0,12.5-1.1,17.1-3.4c1.6-0.8,2.9-1.2,4.1-1.2
				c1.1,0,2.2,0.5,3.3,1.5c1.1,1,1.6,2.1,1.6,3.3c0,2.3-0.9,3.9-2.8,5c-1.9,1-3.6,1.9-5.1,2.6c-1.5,0.7-3.1,1.3-4.9,1.8
				c-4,1.1-8.6,1.7-13.7,1.7c-10.8,0-19.3-3-25.2-9.1c-6-6.1-9-14.7-9-25.9c0-9.7,2.5-17.8,7.5-24.2c5.6-7.2,13.7-10.8,24.1-10.8
				c9.9,0,17.7,3.3,23.4,10c5.4,6.3,8.1,14,8.1,23.3c0,1.7-0.5,3.1-1.7,4.2c-1.1,1.1-2.6,1.7-4.4,1.7h-44.8
				C613.6,156.2,615.8,161,619.6,164.5z M632.3,121.1c-7.8,0-13.6,3.5-17.2,10.4c-1.3,2.5-2.1,5.4-2.2,8.9h39
				c-0.4-6.3-2.6-11.2-6.9-14.8C641.5,122.6,637.2,121.1,632.3,121.1z"/>
		</g>
		<g>
			<path class="st3" d="M724.3,122.1c-7.8,0-15,4.2-21.7,12.7v39.7c0,1.7-0.6,3.1-1.8,4.2c-1.2,1.1-2.6,1.7-4.3,1.7
				c-1.7,0-3.1-0.6-4.2-1.7c-1.1-1.1-1.7-2.5-1.7-4.2V88.6c0-1.8,0.6-3.2,1.7-4.4c1.1-1.1,2.6-1.7,4.2-1.7c1.7,0,3.1,0.6,4.3,1.7
				c1.2,1.1,1.8,2.6,1.8,4.4v34.5c3.5-3.7,6.6-6.3,9.1-7.8c5-2.9,9.8-4.4,14.3-4.4c4.5,0,8.3,0.7,11.2,2c2.9,1.4,5.4,3.2,7.4,5.6
				c4.1,4.8,6.2,10.9,6.2,18.2v37.5c0,1.7-0.6,3.1-1.8,4.2c-1.2,1.1-2.6,1.7-4.3,1.7c-1.7,0-3.1-0.6-4.2-1.7
				c-1.1-1.1-1.7-2.5-1.7-4.2v-36.2c0-5-1.1-9-3.4-11.8C733.2,123.5,729.5,122.1,724.3,122.1z"/>
			<path class="st3" d="M784.2,115.7c7.4-3.2,15.1-4.8,23-4.8c9,0,15.9,2.7,20.9,8.2c4.4,4.8,6.6,10.7,6.6,17.8v37.4
				c0,1.7-0.6,3.1-1.8,4.2c-1.2,1.1-2.6,1.7-4.3,1.7c-1.7,0-3.1-0.6-4.2-1.7c-1.1-1.1-1.7-2.5-1.7-4.2V171c-2.4,2.5-5.6,4.8-9.6,6.9
				c-4,2.1-9.1,3.2-15.3,3.2c-6.1,0-11.2-1.8-15.2-5.3c-4.2-3.7-6.3-8.5-6.3-14.5c0-6.5,2.5-11.6,7.4-15.3c5.4-4,13-6.1,23-6.1h16
				v-1.1c0-5.9-1.5-10.1-4.4-12.6c-2.9-2.5-7.4-3.8-13.4-3.8c-5.1,0-11,1.1-17.6,3.2c-0.7,0.2-1.5,0.3-2.4,0.3
				c-0.9,0-1.8-0.5-2.8-1.4c-1-0.9-1.5-2.4-1.5-4.3C780.7,118.1,781.9,116.7,784.2,115.7z M788.3,159.9c0,7,4.7,10.6,14,10.6
				c4.1,0,8-1,11.6-3c3.6-2,6.5-4.3,8.8-6.9v-11.1h-14.4c-6.3,0-11.1,0.8-14.7,2.4C790,153.4,788.3,156.1,788.3,159.9z"/>
			<path class="st3" d="M897.6,169.8c4.9,0,9.7-1.2,14.1-3.7c1.6-0.9,3-1.3,4.2-1.3c1.2,0,2.3,0.6,3.3,1.7c1,1.1,1.5,2.5,1.5,4.1
				c0,1.6-1,3-3,4.4c-6.3,4.1-13.3,6.1-21.1,6.1c-9.8,0-18-3.1-24.7-9.3c-7-6.5-10.6-15.1-10.6-25.8c0-10.7,3.5-19.3,10.6-25.8
				c6.7-6.2,14.9-9.3,24.7-9.3c5.3,0,9.6,0.7,13,2c3.4,1.4,6.1,2.7,8.1,4c2,1.3,3,2.8,3,4.4c0,1.6-0.5,3-1.5,4.1
				c-1,1.1-1.9,1.7-2.9,1.7c-1.5,0-3-0.4-4.6-1.3c-4.5-2.5-9.2-3.7-14.1-3.7c-7.8,0-13.7,2.2-18,6.5c-4.2,4.4-6.3,10.1-6.3,17.2
				c0,7.1,2.1,12.9,6.3,17.3C883.8,167.6,889.8,169.8,897.6,169.8z"/>
			<path class="st3" d="M1002.9,171c0.9,1.1,1.3,2.5,1.3,4c0,1.5-0.6,2.8-1.7,3.8c-1.1,1.1-2.4,1.6-3.8,1.6c-2.1,0-3.9-0.8-5.4-2.5
				l-22.7-30.9L959,157.4v17.1c0,1.7-0.6,3.1-1.8,4.2c-1.2,1.1-2.6,1.7-4.3,1.7c-1.7,0-3.1-0.6-4.2-1.7c-1.1-1.1-1.7-2.5-1.7-4.2
				V88.6c0-1.7,0.6-3.1,1.7-4.3c1.1-1.2,2.5-1.8,4.2-1.8c1.7,0,3.1,0.6,4.3,1.8c1.2,1.2,1.8,2.6,1.8,4.3v54.1l31.5-29.1
				c1.4-1.1,3-1.7,4.8-1.7c1.8,0,3,0.6,3.8,1.9c0.8,1.3,1.2,2.4,1.2,3.2c0,1.9-0.7,3.7-2.2,5.2l-19,17L1002.9,171z"/>
			<path class="st3" d="M1051.2,169.9c9.8,0,14.7-3.1,14.7-9.4c0-1.9-1-3.4-2.9-4.4c-1.9-1-4.4-1.9-7.3-2.7c-3-0.8-6.1-1.6-9.6-2.4
				c-3.4-0.8-6.6-2-9.6-3.5c-3-1.5-5.4-3.5-7.3-5.9c-1.9-2.4-2.9-5.4-2.9-8.9c0-3.5,0.5-6.6,1.6-9.1c1.1-2.6,2.6-4.8,4.8-6.6
				c4.7-4,11.1-5.9,19.4-5.9c6.6,0,13,1.1,19.2,3.3c1.2,0.4,2.2,1.1,2.8,2.1c0.7,1,1,2,1,3.2c0,1.2-0.5,2.3-1.5,3.4
				c-1,1.1-2,1.6-3,1.6c-1,0-2.2-0.2-3.6-0.7c-4.2-1.3-8.9-2-13.9-2c-5,0-8.8,0.9-11.4,2.6c-2.6,1.8-3.9,3.9-3.9,6.3
				c0,2.5,1,4.3,3,5.5c2,1.2,4.4,2.2,7.3,3c2.9,0.8,6.1,1.6,9.6,2.4c3.5,0.8,6.7,1.9,9.6,3.3c6.9,3.5,10.3,9,10.3,16.4
				c0,5.6-2.1,10.2-6.3,13.7c-4.6,3.9-11,5.8-19.2,5.8c-8.9,0-16.9-2-24.1-5.9c-1.5-1.1-2.2-2.4-2.2-4c0-1.6,0.5-2.9,1.4-4
				c1-1.1,2-1.7,3.2-1.7c1.1,0,2.5,0.4,4.1,1.1C1039.5,168.8,1045.1,169.9,1051.2,169.9z"/>
		</g>
	</g>
	<g>
		<linearGradient id="SVGID_1_" gradientUnits="userSpaceOnUse" x1="119.876" y1="94.2924" x2="253.6525" y2="173.5826">
			<stop  offset="7.206610e-02" style="stop-color:#CD4C27"/>
			<stop  offset="0.1351" style="stop-color:#D95227"/>
			<stop  offset="0.2282" style="stop-color:#E55727"/>
			<stop  offset="0.3523" style="stop-color:#EE5B27"/>
			<stop  offset="0.6307" style="stop-color:#F15C27"/>
			<stop  offset="0.7447" style="stop-color:#F37225"/>
			<stop  offset="0.9103" style="stop-color:#F68B23"/>
			<stop  offset="1" style="stop-color:#F79421"/>
		</linearGradient>
		<path class="st0" d="M242.9,155.3c-0.1,5.9-2.6,15-10.3,11.1c-5-2.5-7-9.5-9.3-16.1c-4.3-12.3-7.7-27-18.5-35.5
			c-9.9-7.8-21-4.6-26,6.7c-3.3,7.5-3.5,17-3.2,25.8c0.4,11.1-0.2,19.7-2.2,10.3c-1.5-7.2-2.7-14.3-3.3-20.7c-2.3-25-5-60.3-11-73.7
			c-3-6.7-10-12.3-17.3-8.3c-8.2,4.5-12,15.8-13.7,24.5c-2,9.8-3.6,22.3-5,35.2c1-7.3,2-14.2,3.1-20c1.6-8.8,4.8-20.1,10.9-24.5
			c5.4-3.8,10.2,2.1,12.1,9c1.8,6.9,2.9,19.3,3.5,33.1c0.8,5.3,1.5,10.6,2.1,15.9c1.5,12.5,2.8,25,5.9,37.2
			c1.7,6.6,4.3,16.4,12.2,17.9c11.4,2.3,15.5-12.8,16.1-21c0.7-9.7-0.6-18.9,0.3-27.8c0.5-4.6,7.8-11.2,15.2,7.7
			c4.6,11.6,7.8,26.2,17.5,34.8c6.1,5.4,14.7,6,21.8,2c9.1-5.2,11.9-15.7,12.4-25.3C257,142.6,243,144.5,242.9,155.3z"/>
		<linearGradient id="SVGID_2_" gradientUnits="userSpaceOnUse" x1="81.9982" y1="166.5775" x2="150.8557" y2="77.9629">
			<stop  offset="0" style="stop-color:#FFFFFF"/>
			<stop  offset="0.2228" style="stop-color:#FBFBFB"/>
			<stop  offset="0.337" style="stop-color:#F2F1F1"/>
			<stop  offset="0.4192" style="stop-color:#E6E6E5"/>
			<stop  offset="0.5419" style="stop-color:#E2E1E1"/>
			<stop  offset="0.6678" style="stop-color:#D5D5D5"/>
			<stop  offset="0.7952" style="stop-color:#C3C2C1"/>
			<stop  offset="0.9228" style="stop-color:#AAA9A9"/>
			<stop  offset="1" style="stop-color:#989898"/>
		</linearGradient>
		<path class="st1" d="M149.3,79.1c-1.8-6.9-6.7-12.8-12.1-9c-6.1,4.3-9.3,15.7-10.9,24.5c-1.1,5.9-2.1,12.7-3.1,20
			c-2,18.6-3.3,37.9-4.2,50.2c-0.4,5.5-0.7,9.6-1,11.7c-1.4,11-5.8,9.5-8.3,4.3c-10.3-21.5-7.8-49.9-21.9-69.8
			c-3.7-5.3-9.5-7-15.4-5.5c-12.6,3.3-18,12.3-18.5,22.8c-0.5,11.7,15.4,10.7,14.2-0.3c-0.7-6.5,4.4-10.5,8.1-6.4
			c3.1,3.5,4.4,8.9,5.8,13.4c3.9,12.8,6,26,9.4,38.9c2.5,9.4,5.8,21.4,14.6,26.8c7.8,4.7,15.7-1.1,19.3-8.1
			c4.6-8.9,5.9-19.4,7.2-29.2c1.7-13.1,2.7-26.4,3.9-39.6c0.8-8.9,2-17.9,3.5-26.8c0.6-3.8,1.3-7.6,2-11.3c2-10,5.2-8.7,7.2,2.9
			c1.3,7.8,2.6,15.7,3.7,23.6C152.1,98.4,151.1,86,149.3,79.1z"/>
	</g>
</g>
</svg>
